<?xml version="1.0" encoding="UTF-8"?>
<svg id="WE25-Logo" xmlns="http://www.w3.org/2000/svg" version="1.1" viewBox="0 0 289.13 53.86">
  <!-- Generator: Adobe Illustrator 29.4.0, SVG Export Plug-In . SVG Version: 2.1.0 Build 152)  -->
  <defs>
    <style>
      .st0 {
        fill: #ec6827;
      }

      .st1 {
        fill: #fff;
      }

      .st2 {
        fill: #000050;
      }
    </style>
  </defs>
  <g id="WE">
    <rect class="st0" x="2.83" y="2.8" width="232.94" height="48.27"/>
    <path class="st1" d="M25.33,39.54c-.16,0-.29-.13-.29-.29,0-.09.04-.18.11-.23l5.94-4.38h-15.59c-.16,0-.29-.13-.29-.29,0-.1.05-.19.13-.24l8.15-6.01c.05-.05.13-.09.21-.09h6.32c1.42.05,2.17.2,2.61.49.53.35.69.76.79,1.03.7,1.94,1.61,8.1,1.66,8.4.04-.3.95-6.47,1.66-8.4.1-.27.26-.67.79-1.03.44-.29,1.19-.44,2.61-.49h15.5c.16,0,.29.13.29.29,0,.1-.05.19-.13.24l-14.78,10.93c-.05.04-.11.06-.18.06h-15.49ZM39.03,19.22l5.93-4.38c.07-.05.12-.14.12-.23,0-.16-.13-.29-.29-.29h-15.49c-.07,0-.13.02-.18.06l-14.34,10.6-.47.35c-.06.05-.1.13-.1.22,0,.16.13.29.29.29h15.51c1.42-.06,2.17-.21,2.61-.5.53-.35.69-.76.79-1.03.7-1.93,1.61-8.1,1.66-8.4.04.3.95,6.47,1.66,8.4.1.27.26.68.79,1.03.44.29,1.19.44,2.61.49h6.32c.06,0,.12-.02.17-.05l8.21-6.04c.07-.05.12-.14.12-.24,0-.16-.13-.29-.29-.29h-15.6ZM80.47,35.04l6.9-15.82h-4.87l-2.83,6.67h-.09l-3.49-6.93h-.54l-3.35,6.93h-.09l-2.88-6.67h-4.91l6.9,15.82h.56l4.05-8.35,4.07,8.35h.56ZM88.5,19.22v15.42h4.59v-15.42h-4.59ZM100.48,28.32h5.48v-3.3h-5.48v-2.36h6.29v-3.44h-10.88v15.42h11.21v-3.46h-6.62v-2.85ZM136.37,28.32h5.48v-3.3h-5.48v-2.36h6.29v-3.44h-10.88v15.42h11.21v-3.46h-6.62v-2.85ZM166.7,28.32h5.48v-3.3h-5.48v-2.36h6.29v-3.44h-10.88v15.42h11.21v-3.46h-6.62v-2.85ZM180.16,30.59c.33-.09.87-.22,1.64-.37l2.11,4.42h4.7l-3.04-5.83c1.53-1.01,2.29-2.45,2.29-4.31,0-1.5-.53-2.75-1.59-3.77-1.06-1.01-2.55-1.52-4.47-1.52h-6.22v15.42h4.59v-4.05ZM182.84,25.94c-.37.37-.93.66-1.7.84l-1.01.26v-4.47h1.17c.67,0,1.19.17,1.54.51.36.34.54.8.54,1.38,0,.61-.18,1.1-.55,1.47ZM191.53,32.82c1.42,1.42,3.48,2.13,6.18,2.13,2.18,0,4.06-.3,5.62-.89v-7.56h-3.98v4.66c-.45.13-.91.19-1.38.19-1.31,0-2.29-.38-2.95-1.13s-.98-1.78-.98-3.08c0-1.4.4-2.51,1.21-3.32.8-.81,1.88-1.22,3.24-1.22,1.58,0,2.96.34,4.14,1.01v-3.89c-1.26-.56-2.78-.84-4.56-.84-2.65,0-4.77.79-6.34,2.36-1.56,1.56-2.34,3.49-2.34,5.8s.72,4.35,2.15,5.78ZM205.8,19.22v15.42h4.59v-15.42h-4.59ZM217.79,28.32h5.48v-3.3h-5.48v-2.36h6.29v-3.44h-10.88v15.42h11.21v-3.46h-6.62v-2.85ZM118.89,19.22v7.01h-.09l-8.68-7.41h-.77v15.82h4.59v-7.06h.09l8.68,7.41h.77v-15.77h-4.59ZM154.79,19.22v7.01h-.09l-8.68-7.41h-.77v15.82h4.59v-7.06h.09l8.68,7.41h.77v-15.77h-4.59Z"/>
  </g>
  <g id="WSTW">
    <rect class="st2" x="238.03" y="2.79" width="48.27" height="48.27"/>
    <path class="st1" d="M277.41,17.46l-1.42-7.18-1.42,7.18c-.19.94-1.02,1.63-1.98,1.63h-34.57v2.12h34.57c.96,0,1.79.68,1.98,1.63l1.42,7.18,1.42-7.18c.19-.94,1.02-1.63,1.98-1.63h6.91v-2.12h-6.91c-.96,0-1.79-.68-1.98-1.63Z"/>
  </g>
</svg>